fd_9_states
version=1
nRows=27
nColumns=17
inDegrees=yes

# SIMM Motion File Header:
name fd_9_states
datacolumns 17
datarows 27
otherdata 1
range 0.159984 0.179873
endheader
time	/jointset/r_shoulder/r_shoulder_elev/value	/jointset/r_shoulder/r_shoulder_elev/speed	/jointset/r_elbow/r_elbow_flex/value	/jointset/r_elbow/r_elbow_flex/speed	/forceset/TRIlong/activation	/forceset/TRIlong/fiber_length	/forceset/TRIlat/activation	/forceset/TRIlat/fiber_length	/forceset/TRImed/activation	/forceset/TRImed/fiber_length	/forceset/BIClong/activation	/forceset/BIClong/fiber_length	/forceset/BICshort/activation	/forceset/BICshort/fiber_length	/forceset/BRA/activation	/forceset/BRA/fiber_length
      0.159984	      0.012115	      0.337744	     69.331656	    343.560542	      0.024267	      0.162757	      0.036921	      0.096825	      0.038725	      0.091808	      0.544773	      0.114034	      0.168015	      0.114013	      0.084805	      0.076166
      0.160065	      0.012142	      0.337027	     69.359382	    343.538584	      0.024263	      0.162766	      0.037032	      0.096834	      0.038826	      0.091817	      0.545010	      0.114011	      0.168097	      0.113993	      0.084727	      0.076157
      0.160146	      0.012170	      0.336253	     69.387107	    343.516857	      0.024258	      0.162775	      0.037226	      0.096843	      0.038991	      0.091826	      0.545151	      0.113988	      0.168739	      0.113972	      0.084650	      0.076149
      0.160549	      0.012305	      0.332369	     69.525704	    343.408893	      0.024235	      0.162821	      0.038152	      0.096882	      0.039781	      0.091866	      0.545844	      0.113873	      0.171836	      0.113869	      0.084268	      0.076104
      0.161930	      0.012758	      0.328923	     69.999503	    343.013247	      0.024157	      0.162980	      0.040847	      0.097010	      0.042081	      0.092002	      0.548058	      0.113482	      0.181156	      0.113504	      0.082981	      0.075951
      0.163094	      0.013144	      0.334764	     70.398884	    342.664005	      0.024093	      0.163105	      0.042646	      0.097120	      0.043619	      0.092117	      0.549751	      0.113154	      0.187719	      0.113185	      0.081919	      0.075822
      0.163857	      0.013401	      0.338878	     70.659965	    342.427455	      0.024051	      0.163225	      0.043634	      0.097195	      0.044465	      0.092195	      0.550779	      0.112941	      0.191474	      0.112973	      0.081237	      0.075737
      0.164619	      0.013662	      0.345191	     70.920872	    342.209326	      0.024010	      0.163284	      0.044495	      0.097272	      0.045202	      0.092274	      0.551748	      0.112728	      0.194860	      0.112759	      0.080563	      0.075652
      0.165658	      0.014022	      0.346712	     71.276186	    341.913120	      0.023955	      0.163400	      0.045495	      0.097379	      0.046059	      0.092383	      0.552981	      0.112439	      0.198952	      0.112465	      0.079659	      0.075535
      0.167063	      0.014508	      0.343726	     71.756398	    341.524761	      0.023881	      0.163590	      0.046584	      0.097526	      0.046993	      0.092533	      0.554501	      0.112050	      0.203665	      0.112066	      0.078463	      0.075377
      0.167825	      0.014770	      0.342967	     72.016564	    341.336680	      0.023842	      0.163644	      0.047070	      0.097608	      0.047410	      0.092616	      0.555260	      0.111840	      0.205883	      0.111849	      0.077826	      0.075291
      0.168884	      0.015129	      0.333718	     72.378074	    341.074488	      0.023787	      0.163759	      0.047646	      0.097722	      0.047904	      0.092731	      0.556244	      0.111548	      0.208626	      0.111547	      0.076955	      0.075171
      0.169589	      0.015361	      0.323891	     72.618302	    340.907119	      0.023752	      0.163847	      0.047973	      0.097799	      0.048185	      0.092809	      0.556856	      0.111355	      0.210255	      0.111347	      0.076384	      0.075090
      0.169964	      0.015481	      0.318134	     72.746113	    340.823004	      0.023733	      0.163885	      0.048132	      0.097840	      0.048321	      0.092850	      0.557168	      0.111252	      0.211065	      0.111240	      0.076084	      0.075048
      0.170126	      0.015533	      0.315333	     72.801250	    340.787025	      0.023727	      0.163902	      0.048279	      0.097858	      0.048489	      0.092868	      0.557617	      0.111207	      0.210934	      0.111194	      0.075952	      0.075029
      0.170287	      0.015583	      0.312460	     72.856381	    340.751089	      0.023724	      0.163920	      0.048494	      0.097875	      0.048750	      0.092885	      0.558335	      0.111163	      0.210553	      0.111148	      0.075818	      0.075011
      0.171096	      0.015831	      0.299723	     73.131946	    340.564407	      0.023705	      0.164010	      0.049477	      0.097958	      0.049943	      0.092967	      0.561787	      0.110940	      0.208667	      0.110922	      0.075155	      0.074918
      0.172419	      0.016218	      0.287506	     73.582335	    340.221364	      0.023675	      0.164173	      0.050812	      0.098095	      0.051561	      0.093102	      0.566980	      0.110573	      0.205663	      0.110558	      0.074090	      0.074766
      0.173086	      0.016410	      0.286361	     73.808968	    340.040708	      0.023660	      0.164232	      0.051375	      0.098165	      0.052244	      0.093171	      0.569398	      0.110387	      0.204186	      0.110378	      0.073562	      0.074690
      0.174029	      0.016679	      0.285306	     74.129480	    339.767865	      0.023639	      0.164340	      0.052067	      0.098265	      0.053083	      0.093270	      0.572613	      0.110123	      0.202137	      0.110125	      0.072826	      0.074581
      0.174909	      0.016930	      0.286399	     74.428542	    339.508670	      0.023620	      0.164433	      0.052618	      0.098360	      0.053751	      0.093364	      0.575411	      0.109876	      0.200265	      0.109891	      0.072150	      0.074479
      0.175790	      0.017183	      0.286373	     74.727375	    339.241586	      0.023601	      0.164573	      0.053091	      0.098455	      0.054325	      0.093459	      0.578026	      0.109629	      0.198432	      0.109658	      0.071483	      0.074376
      0.176670	      0.017438	      0.291376	     75.025981	    338.992531	      0.023582	      0.164632	      0.053497	      0.098551	      0.054817	      0.093555	      0.580471	      0.109382	      0.196637	      0.109427	      0.070827	      0.074274
      0.177551	      0.017694	      0.290340	     75.324359	    338.728259	      0.023564	      0.164740	      0.053845	      0.098648	      0.055239	      0.093651	      0.582758	      0.109134	      0.194879	      0.109197	      0.070180	      0.074171
      0.178295	      0.017910	      0.289679	     75.576377	    338.511958	      0.023548	      0.164812	      0.054101	      0.098730	      0.055550	      0.093733	      0.584576	      0.108925	      0.193421	      0.109003	      0.069641	      0.074084
      0.179039	      0.018125	      0.286293	     75.828234	    338.293913	      0.023533	      0.164902	      0.054325	      0.098813	      0.055823	      0.093815	      0.586295	      0.108716	      0.191989	      0.108810	      0.069109	      0.073997
      0.179873	      0.018362	      0.281979	     76.110319	    338.057715	      0.023516	      0.164987	      0.054545	      0.098906	      0.056090	      0.093907	      0.588111	      0.108482	      0.190413	      0.108594	      0.068520	      0.073899
